<?xml version="1.0" encoding="UTF-8" standalone="no"?>
<!-- Uploaded to: SVG Repo, www.svgrepo.com, Generator: SVG Repo Mixer Tools -->

<svg
   width="800px"
   height="800px"
   viewBox="0 0 100 100"
   version="1.1"
   id="svg7"
   xmlns="http://www.w3.org/2000/svg"
   xmlns:svg="http://www.w3.org/2000/svg">
  <defs
     id="defs7" />
  <path
     style="fill:#111111;stroke:#666666"
     d="m 41,81 0,8 c 0,0 -6,0 -7,0 -4,0 -6,6 -6,6 2,0 43,0 44,0 0,0 -1,-6 -4,-6 -2,0 -7,0 -7,0 l 0,-8"
     id="path1" />
  <path
     style="fill:#ffffff;stroke:#000000;stroke-width:4px;stroke-linecap:butt"
     d="m 4.7,74 c 0,-16 0,-45 0,-57 0,-4 0,-8.8 5.2,-8.8 9.1,0 76.1,0 81.1,0 5,0 5,4.8 5,12.8 0,11 0,46 0,53 0,1 0,5 -8,5 -5,0 -74,0 -78.1,0 -5.2,0 -5.2,-5 -5.2,-5 z"
     id="path2" />
  <path
     style="fill:none;stroke:#666666;stroke-width:3.00785"
     d="M 33.308317,53.574369 C 23.783472,41.041678 28.796549,18.984141 50.352778,18.984141 c 22.558844,0 24.564075,23.060152 17.04446,34.590228"
     id="path1-7" />
  <path
     style="fill:none;stroke:#444444;stroke-width:2.50654"
     d="M 38.822702,50.566523 C 30.801779,40.54037 36.316163,25.50114 50.352778,25.50114 c 13.535306,0 18.548383,14.537922 11.530076,25.065383"
     id="path2-5" />
  <path
     style="fill:none;stroke:#222222;stroke-width:2.00523"
     d="m 43.33447,48.059985 c -4.511768,-6.015692 -2.506538,-16.543153 7.018308,-16.543153 9.524845,0 11.530076,11.530076 7.018307,16.543153"
     id="path3" />
  <path
     style="fill:#12c61c;stroke-width:0.501308;fill-opacity:1"
     d="m 45.841009,66.608368 2.506538,-20.052306 c 0,0 -3.007846,-0.501308 -3.007846,-4.511769 0,-3.007846 2.005231,-5.013077 5.013077,-5.013077 3.007846,0 5.013076,2.005231 5.013076,5.013077 0,3.509154 -2.506538,4.511769 -2.506538,4.511769 l 2.506538,20.052306 z"
     id="path4" />
</svg>
